# xmcd
#
# Track frame offsets:
#	150
#	15880
#	32595
#	48470
#	64965
#	80070
#	113012
#
# Disc length: 1855 seconds
# Revision: 0
# Processed by: cddbd v1.5.2PL0 Copyright (c) Steve Scherf et al.
# Submitted via: dBpowerAMP V12.0
#
DISCID=4f073d07
DTITLE=She Moves - Breaking All The Rules [Single]
DYEAR=1997
DGENRE=R&B
TTITLE0=Breaking All The Rules [LP Version]
TTITLE1=Breaking All The Rules [Radio Mix]
TTITLE2=Breaking All The Rules [Bass Rules Mix]
TTITLE3=Breaking All The Rules [Berman Brothers Dance Mix]
TTITLE4=Breaking All The Rules [Soul Solution Radio Mix]
TTITLE5=Breaking All The Rules [Soul Solution Club Mix]
TTITLE6=Breaking All The Rules [Soul Solution Dub Mix]
EXTD=
EXTT0=
EXTT1=
EXTT2=
EXTT3=
EXTT4=
EXTT5=
EXTT6=
PLAYORDER=
